<mxfile host="65bd71144e">
    <diagram id="EE3FyEcN0oXOgf9-N17r" name="OrderLoad handler">
        <mxGraphModel dx="871" dy="689" grid="1" gridSize="10" guides="1" tooltips="1" connect="1" arrows="1" fold="1" page="1" pageScale="1" pageWidth="827" pageHeight="1169" math="0" shadow="0">
            <root>
                <mxCell id="0"/>
                <mxCell id="1" parent="0"/>
                <mxCell id="22" value="" style="rounded=0;whiteSpace=wrap;html=1;" vertex="1" parent="1">
                    <mxGeometry x="10" y="20" width="570" height="340" as="geometry"/>
                </mxCell>
                <mxCell id="10" style="edgeStyle=none;html=1;exitX=0.5;exitY=1;exitDx=0;exitDy=0;entryX=0.5;entryY=0;entryDx=0;entryDy=0;" edge="1" parent="1" source="2" target="5">
                    <mxGeometry relative="1" as="geometry"/>
                </mxCell>
                <mxCell id="2" value="OrderLoad" style="rounded=1;whiteSpace=wrap;html=1;" vertex="1" parent="1">
                    <mxGeometry x="40" y="40" width="120" height="40" as="geometry"/>
                </mxCell>
                <mxCell id="3" value="User&lt;br&gt;Order number" style="rounded=0;whiteSpace=wrap;html=1;align=left;" vertex="1" parent="1">
                    <mxGeometry x="140" y="50" width="90" height="40" as="geometry"/>
                </mxCell>
                <mxCell id="4" value="DB" style="shape=cylinder3;whiteSpace=wrap;html=1;boundedLbl=1;backgroundOutline=1;size=15;" vertex="1" parent="1">
                    <mxGeometry x="440" y="80" width="60" height="80" as="geometry"/>
                </mxCell>
                <mxCell id="17" style="edgeStyle=none;html=1;exitX=0.5;exitY=1;exitDx=0;exitDy=0;entryX=0.5;entryY=0;entryDx=0;entryDy=0;" edge="1" parent="1" source="5" target="16">
                    <mxGeometry relative="1" as="geometry"/>
                </mxCell>
                <mxCell id="5" value="Save to DB&lt;br&gt;(status NEW)" style="rounded=0;whiteSpace=wrap;html=1;" vertex="1" parent="1">
                    <mxGeometry x="40" y="120" width="120" height="40" as="geometry"/>
                </mxCell>
                <mxCell id="6" value="" style="endArrow=classic;html=1;exitX=1;exitY=0.5;exitDx=0;exitDy=0;entryX=0;entryY=0.5;entryDx=0;entryDy=0;entryPerimeter=0;" edge="1" parent="1" source="5" target="4">
                    <mxGeometry width="50" height="50" relative="1" as="geometry">
                        <mxPoint x="430" y="430" as="sourcePoint"/>
                        <mxPoint x="480" y="380" as="targetPoint"/>
                    </mxGeometry>
                </mxCell>
                <mxCell id="7" value="Status = NEW&lt;br&gt;User&lt;br&gt;Order number" style="rounded=0;whiteSpace=wrap;html=1;align=left;" vertex="1" parent="1">
                    <mxGeometry x="220" y="100" width="90" height="50" as="geometry"/>
                </mxCell>
                <mxCell id="14" style="edgeStyle=none;html=1;exitX=1;exitY=0.5;exitDx=0;exitDy=0;entryX=0;entryY=0.5;entryDx=0;entryDy=0;entryPerimeter=0;" edge="1" parent="1" source="11" target="13">
                    <mxGeometry relative="1" as="geometry"/>
                </mxCell>
                <mxCell id="11" value="Save to CASH&lt;br&gt;(status NEW)" style="rounded=0;whiteSpace=wrap;html=1;" vertex="1" parent="1">
                    <mxGeometry x="220" y="210" width="120" height="40" as="geometry"/>
                </mxCell>
                <mxCell id="13" value="CASH&lt;br&gt;len = 256" style="shape=cylinder3;whiteSpace=wrap;html=1;boundedLbl=1;backgroundOutline=1;size=15;" vertex="1" parent="1">
                    <mxGeometry x="500" y="250" width="60" height="80" as="geometry"/>
                </mxCell>
                <mxCell id="15" value="Status = NEW&lt;br&gt;User&lt;br&gt;Order number" style="rounded=0;whiteSpace=wrap;html=1;align=left;" vertex="1" parent="1">
                    <mxGeometry x="380" y="220" width="90" height="50" as="geometry"/>
                </mxCell>
                <mxCell id="19" value="yes" style="edgeStyle=none;html=1;exitX=1;exitY=0.5;exitDx=0;exitDy=0;entryX=0;entryY=0.5;entryDx=0;entryDy=0;" edge="1" parent="1" source="16" target="11">
                    <mxGeometry relative="1" as="geometry"/>
                </mxCell>
                <mxCell id="21" value="no" style="edgeStyle=none;html=1;exitX=0.5;exitY=1;exitDx=0;exitDy=0;entryX=0.5;entryY=0;entryDx=0;entryDy=0;" edge="1" parent="1" source="16" target="20">
                    <mxGeometry relative="1" as="geometry"/>
                </mxCell>
                <mxCell id="16" value="if cash != full" style="rhombus;whiteSpace=wrap;html=1;" vertex="1" parent="1">
                    <mxGeometry x="22.5" y="200" width="155" height="60" as="geometry"/>
                </mxCell>
                <mxCell id="20" value="Exit" style="rounded=0;whiteSpace=wrap;html=1;" vertex="1" parent="1">
                    <mxGeometry x="40" y="300" width="120" height="40" as="geometry"/>
                </mxCell>
                <mxCell id="23" value="Order load handler" style="text;html=1;strokeColor=none;fillColor=none;align=center;verticalAlign=middle;whiteSpace=wrap;rounded=0;fontStyle=1" vertex="1" parent="1">
                    <mxGeometry x="440" y="30" width="130" height="30" as="geometry"/>
                </mxCell>
                <mxCell id="50" value="OrderProvider" style="swimlane;fontStyle=0;align=center;verticalAlign=top;childLayout=stackLayout;horizontal=1;startSize=55;horizontalStack=0;resizeParent=1;resizeParentMax=0;resizeLast=0;collapsible=0;marginBottom=0;html=1;" vertex="1" parent="1">
                    <mxGeometry x="660" y="143.5" width="140" height="203" as="geometry"/>
                </mxCell>
                <mxCell id="51" value="attributes" style="text;html=1;strokeColor=none;fillColor=none;align=center;verticalAlign=middle;spacingLeft=4;spacingRight=4;overflow=hidden;rotatable=0;points=[[0,0.5],[1,0.5]];portConstraint=eastwest;" vertex="1" parent="50">
                    <mxGeometry y="55" width="140" height="20" as="geometry"/>
                </mxCell>
                <mxCell id="52" value="cash OrderCash" style="text;html=1;strokeColor=none;fillColor=none;align=left;verticalAlign=middle;spacingLeft=4;spacingRight=4;overflow=hidden;rotatable=0;points=[[0,0.5],[1,0.5]];portConstraint=eastwest;" vertex="1" parent="50">
                    <mxGeometry y="75" width="140" height="20" as="geometry"/>
                </mxCell>
                <mxCell id="53" value="inherited attribute2" style="text;html=1;strokeColor=none;fillColor=none;align=left;verticalAlign=middle;spacingLeft=4;spacingRight=4;overflow=hidden;rotatable=0;points=[[0,0.5],[1,0.5]];portConstraint=eastwest;fontColor=#808080;" vertex="1" parent="50">
                    <mxGeometry y="95" width="140" height="20" as="geometry"/>
                </mxCell>
                <mxCell id="54" value="..." style="text;html=1;strokeColor=none;fillColor=none;align=left;verticalAlign=middle;spacingLeft=4;spacingRight=4;overflow=hidden;rotatable=0;points=[[0,0.5],[1,0.5]];portConstraint=eastwest;" vertex="1" parent="50">
                    <mxGeometry y="115" width="140" height="20" as="geometry"/>
                </mxCell>
                <mxCell id="55" value="" style="line;strokeWidth=1;fillColor=none;align=left;verticalAlign=middle;spacingTop=-1;spacingLeft=3;spacingRight=3;rotatable=0;labelPosition=right;points=[];portConstraint=eastwest;" vertex="1" parent="50">
                    <mxGeometry y="135" width="140" height="8" as="geometry"/>
                </mxCell>
                <mxCell id="56" value="operations" style="text;html=1;strokeColor=none;fillColor=none;align=center;verticalAlign=middle;spacingLeft=4;spacingRight=4;overflow=hidden;rotatable=0;points=[[0,0.5],[1,0.5]];portConstraint=eastwest;" vertex="1" parent="50">
                    <mxGeometry y="143" width="140" height="20" as="geometry"/>
                </mxCell>
                <mxCell id="57" value="worker(context) error" style="text;html=1;strokeColor=none;fillColor=none;align=left;verticalAlign=middle;spacingLeft=4;spacingRight=4;overflow=hidden;rotatable=0;points=[[0,0.5],[1,0.5]];portConstraint=eastwest;" vertex="1" parent="50">
                    <mxGeometry y="163" width="140" height="20" as="geometry"/>
                </mxCell>
                <mxCell id="58" value="Run(context)" style="text;html=1;strokeColor=none;fillColor=none;align=left;verticalAlign=middle;spacingLeft=4;spacingRight=4;overflow=hidden;rotatable=0;points=[[0,0.5],[1,0.5]];portConstraint=eastwest;" vertex="1" parent="50">
                    <mxGeometry y="183" width="140" height="20" as="geometry"/>
                </mxCell>
                <mxCell id="61" value="" style="edgeStyle=none;html=1;" edge="1" parent="1" source="59" target="60">
                    <mxGeometry relative="1" as="geometry"/>
                </mxCell>
                <mxCell id="59" value="OrderProvider.worker" style="rounded=1;whiteSpace=wrap;html=1;" vertex="1" parent="1">
                    <mxGeometry x="40" y="440" width="120" height="40" as="geometry"/>
                </mxCell>
                <mxCell id="63" value="" style="edgeStyle=none;html=1;" edge="1" parent="1" source="60" target="62">
                    <mxGeometry relative="1" as="geometry"/>
                </mxCell>
                <mxCell id="64" value="yes" style="edgeLabel;html=1;align=center;verticalAlign=middle;resizable=0;points=[];" vertex="1" connectable="0" parent="63">
                    <mxGeometry x="-0.3452" y="1" relative="1" as="geometry">
                        <mxPoint y="1" as="offset"/>
                    </mxGeometry>
                </mxCell>
                <mxCell id="60" value="if cash != full" style="rhombus;whiteSpace=wrap;html=1;" vertex="1" parent="1">
                    <mxGeometry x="22.5" y="520" width="155" height="60" as="geometry"/>
                </mxCell>
                <mxCell id="66" style="edgeStyle=none;html=1;exitX=1;exitY=0.5;exitDx=0;exitDy=0;entryX=0;entryY=0.5;entryDx=0;entryDy=0;entryPerimeter=0;" edge="1" parent="1" source="62" target="65">
                    <mxGeometry relative="1" as="geometry"/>
                </mxCell>
                <mxCell id="62" value="&lt;div style=&quot;text-align: left;&quot;&gt;&lt;span style=&quot;background-color: initial;&quot;&gt;Get orders from DB, where:&lt;/span&gt;&lt;/div&gt;&lt;div style=&quot;text-align: left;&quot;&gt;&lt;span style=&quot;background-color: initial;&quot;&gt;Status != INVALID,&lt;/span&gt;&lt;/div&gt;&lt;div style=&quot;text-align: left;&quot;&gt;&lt;span style=&quot;background-color: initial;&quot;&gt;Status != PROCESSED.&lt;/span&gt;&lt;/div&gt;&lt;div style=&quot;text-align: left;&quot;&gt;&lt;span style=&quot;background-color: initial;&quot;&gt;MaxCount = cashMaxLen - cashLen&lt;/span&gt;&lt;/div&gt;" style="rounded=0;whiteSpace=wrap;html=1;" vertex="1" parent="1">
                    <mxGeometry x="220" y="515" width="200" height="70" as="geometry"/>
                </mxCell>
                <mxCell id="65" value="CASH&lt;br&gt;len = 256" style="shape=cylinder3;whiteSpace=wrap;html=1;boundedLbl=1;backgroundOutline=1;size=15;" vertex="1" parent="1">
                    <mxGeometry x="580" y="560" width="60" height="80" as="geometry"/>
                </mxCell>
                <mxCell id="67" value="User&lt;br&gt;Order number" style="rounded=0;whiteSpace=wrap;html=1;align=left;" vertex="1" parent="1">
                    <mxGeometry x="460" y="530" width="90" height="50" as="geometry"/>
                </mxCell>
            </root>
        </mxGraphModel>
    </diagram>
    <diagram name="OrderChecker worker" id="65Xe9jxZVsFNUB36uszv">
        <mxGraphModel dx="1045" dy="827" grid="1" gridSize="10" guides="1" tooltips="1" connect="1" arrows="1" fold="1" page="1" pageScale="1" pageWidth="827" pageHeight="1169" math="0" shadow="0">
            <root>
                <mxCell id="Z1GZJJLQpgZPQw_ahjLU-0"/>
                <mxCell id="Z1GZJJLQpgZPQw_ahjLU-1" parent="Z1GZJJLQpgZPQw_ahjLU-0"/>
                <mxCell id="Z1GZJJLQpgZPQw_ahjLU-4" value="OrderChecker" style="rounded=1;whiteSpace=wrap;html=1;" vertex="1" parent="Z1GZJJLQpgZPQw_ahjLU-1">
                    <mxGeometry x="120" y="40" width="120" height="40" as="geometry"/>
                </mxCell>
                <mxCell id="Z1GZJJLQpgZPQw_ahjLU-5" value="User&lt;br&gt;Order number" style="rounded=0;whiteSpace=wrap;html=1;align=left;" vertex="1" parent="Z1GZJJLQpgZPQw_ahjLU-1">
                    <mxGeometry x="207.5" y="690" width="90" height="40" as="geometry"/>
                </mxCell>
                <mxCell id="Z1GZJJLQpgZPQw_ahjLU-6" value="DB" style="shape=cylinder3;whiteSpace=wrap;html=1;boundedLbl=1;backgroundOutline=1;size=15;" vertex="1" parent="Z1GZJJLQpgZPQw_ahjLU-1">
                    <mxGeometry x="507.5" y="720" width="60" height="80" as="geometry"/>
                </mxCell>
                <mxCell id="Z1GZJJLQpgZPQw_ahjLU-7" style="edgeStyle=none;html=1;exitX=0.5;exitY=1;exitDx=0;exitDy=0;entryX=0.5;entryY=0;entryDx=0;entryDy=0;" edge="1" parent="Z1GZJJLQpgZPQw_ahjLU-1" source="Z1GZJJLQpgZPQw_ahjLU-8" target="Z1GZJJLQpgZPQw_ahjLU-17">
                    <mxGeometry relative="1" as="geometry"/>
                </mxCell>
                <mxCell id="Z1GZJJLQpgZPQw_ahjLU-8" value="Save to DB&lt;br&gt;(status NEW)" style="rounded=0;whiteSpace=wrap;html=1;" vertex="1" parent="Z1GZJJLQpgZPQw_ahjLU-1">
                    <mxGeometry x="107.5" y="760" width="120" height="40" as="geometry"/>
                </mxCell>
                <mxCell id="Z1GZJJLQpgZPQw_ahjLU-9" value="" style="endArrow=classic;html=1;exitX=1;exitY=0.5;exitDx=0;exitDy=0;entryX=0;entryY=0.5;entryDx=0;entryDy=0;entryPerimeter=0;" edge="1" parent="Z1GZJJLQpgZPQw_ahjLU-1" source="Z1GZJJLQpgZPQw_ahjLU-8" target="Z1GZJJLQpgZPQw_ahjLU-6">
                    <mxGeometry width="50" height="50" relative="1" as="geometry">
                        <mxPoint x="497.5" y="1070" as="sourcePoint"/>
                        <mxPoint x="547.5" y="1020" as="targetPoint"/>
                    </mxGeometry>
                </mxCell>
                <mxCell id="Z1GZJJLQpgZPQw_ahjLU-10" value="Status = NEW&lt;br&gt;User&lt;br&gt;Order number" style="rounded=0;whiteSpace=wrap;html=1;align=left;" vertex="1" parent="Z1GZJJLQpgZPQw_ahjLU-1">
                    <mxGeometry x="287.5" y="740" width="90" height="50" as="geometry"/>
                </mxCell>
                <mxCell id="Z1GZJJLQpgZPQw_ahjLU-11" style="edgeStyle=none;html=1;exitX=1;exitY=0.5;exitDx=0;exitDy=0;entryX=0;entryY=0.5;entryDx=0;entryDy=0;entryPerimeter=0;" edge="1" parent="Z1GZJJLQpgZPQw_ahjLU-1" source="Z1GZJJLQpgZPQw_ahjLU-12" target="Z1GZJJLQpgZPQw_ahjLU-13">
                    <mxGeometry relative="1" as="geometry"/>
                </mxCell>
                <mxCell id="Z1GZJJLQpgZPQw_ahjLU-12" value="Save to CASH&lt;br&gt;(status NEW)" style="rounded=0;whiteSpace=wrap;html=1;" vertex="1" parent="Z1GZJJLQpgZPQw_ahjLU-1">
                    <mxGeometry x="287.5" y="850" width="120" height="40" as="geometry"/>
                </mxCell>
                <mxCell id="Z1GZJJLQpgZPQw_ahjLU-13" value="CASH&lt;br&gt;len = 256" style="shape=cylinder3;whiteSpace=wrap;html=1;boundedLbl=1;backgroundOutline=1;size=15;" vertex="1" parent="Z1GZJJLQpgZPQw_ahjLU-1">
                    <mxGeometry x="567.5" y="890" width="60" height="80" as="geometry"/>
                </mxCell>
                <mxCell id="Z1GZJJLQpgZPQw_ahjLU-14" value="Status = NEW&lt;br&gt;User&lt;br&gt;Order number" style="rounded=0;whiteSpace=wrap;html=1;align=left;" vertex="1" parent="Z1GZJJLQpgZPQw_ahjLU-1">
                    <mxGeometry x="447.5" y="860" width="90" height="50" as="geometry"/>
                </mxCell>
                <mxCell id="Z1GZJJLQpgZPQw_ahjLU-15" value="yes" style="edgeStyle=none;html=1;exitX=1;exitY=0.5;exitDx=0;exitDy=0;entryX=0;entryY=0.5;entryDx=0;entryDy=0;" edge="1" parent="Z1GZJJLQpgZPQw_ahjLU-1" source="Z1GZJJLQpgZPQw_ahjLU-17" target="Z1GZJJLQpgZPQw_ahjLU-12">
                    <mxGeometry relative="1" as="geometry"/>
                </mxCell>
                <mxCell id="Z1GZJJLQpgZPQw_ahjLU-16" value="no" style="edgeStyle=none;html=1;exitX=0.5;exitY=1;exitDx=0;exitDy=0;entryX=0.5;entryY=0;entryDx=0;entryDy=0;" edge="1" parent="Z1GZJJLQpgZPQw_ahjLU-1" source="Z1GZJJLQpgZPQw_ahjLU-17" target="Z1GZJJLQpgZPQw_ahjLU-18">
                    <mxGeometry relative="1" as="geometry"/>
                </mxCell>
                <mxCell id="Z1GZJJLQpgZPQw_ahjLU-17" value="if cash != full" style="rhombus;whiteSpace=wrap;html=1;" vertex="1" parent="Z1GZJJLQpgZPQw_ahjLU-1">
                    <mxGeometry x="90" y="840" width="155" height="60" as="geometry"/>
                </mxCell>
                <mxCell id="Z1GZJJLQpgZPQw_ahjLU-18" value="Exit" style="rounded=0;whiteSpace=wrap;html=1;" vertex="1" parent="Z1GZJJLQpgZPQw_ahjLU-1">
                    <mxGeometry x="107.5" y="940" width="120" height="40" as="geometry"/>
                </mxCell>
                <mxCell id="Z1GZJJLQpgZPQw_ahjLU-29" value="" style="edgeStyle=none;html=1;" edge="1" parent="Z1GZJJLQpgZPQw_ahjLU-1" source="Z1GZJJLQpgZPQw_ahjLU-30" target="Z1GZJJLQpgZPQw_ahjLU-33">
                    <mxGeometry relative="1" as="geometry"/>
                </mxCell>
                <mxCell id="Z1GZJJLQpgZPQw_ahjLU-30" value="OrderProvider.worker" style="rounded=1;whiteSpace=wrap;html=1;" vertex="1" parent="Z1GZJJLQpgZPQw_ahjLU-1">
                    <mxGeometry x="40" y="440" width="120" height="40" as="geometry"/>
                </mxCell>
                <mxCell id="Z1GZJJLQpgZPQw_ahjLU-33" value="if cash != full" style="rhombus;whiteSpace=wrap;html=1;" vertex="1" parent="Z1GZJJLQpgZPQw_ahjLU-1">
                    <mxGeometry x="22.5" y="520" width="155" height="60" as="geometry"/>
                </mxCell>
                <mxCell id="Z1GZJJLQpgZPQw_ahjLU-35" value="&lt;div style=&quot;text-align: left;&quot;&gt;&lt;span style=&quot;background-color: initial;&quot;&gt;Get orders from DB, where:&lt;/span&gt;&lt;/div&gt;&lt;div style=&quot;text-align: left;&quot;&gt;&lt;span style=&quot;background-color: initial;&quot;&gt;Status != INVALID,&lt;/span&gt;&lt;/div&gt;&lt;div style=&quot;text-align: left;&quot;&gt;&lt;span style=&quot;background-color: initial;&quot;&gt;Status != PROCESSED.&lt;/span&gt;&lt;/div&gt;&lt;div style=&quot;text-align: left;&quot;&gt;&lt;span style=&quot;background-color: initial;&quot;&gt;MaxCount = cashMaxLen - cashLen&lt;/span&gt;&lt;/div&gt;" style="rounded=0;whiteSpace=wrap;html=1;" vertex="1" parent="Z1GZJJLQpgZPQw_ahjLU-1">
                    <mxGeometry x="207.5" y="430" width="200" height="70" as="geometry"/>
                </mxCell>
                <mxCell id="Z1GZJJLQpgZPQw_ahjLU-36" value="CASH&lt;br&gt;len = 256" style="shape=cylinder3;whiteSpace=wrap;html=1;boundedLbl=1;backgroundOutline=1;size=15;" vertex="1" parent="Z1GZJJLQpgZPQw_ahjLU-1">
                    <mxGeometry x="580" y="560" width="60" height="80" as="geometry"/>
                </mxCell>
                <mxCell id="Z1GZJJLQpgZPQw_ahjLU-37" value="User&lt;br&gt;Order number" style="rounded=0;whiteSpace=wrap;html=1;align=left;" vertex="1" parent="Z1GZJJLQpgZPQw_ahjLU-1">
                    <mxGeometry x="460" y="530" width="90" height="50" as="geometry"/>
                </mxCell>
                <mxCell id="8txTYELBoxjARw4TTfnx-0" value="&lt;div style=&quot;text-align: left;&quot;&gt;Fill free cache cells&lt;/div&gt;" style="rounded=0;whiteSpace=wrap;html=1;" vertex="1" parent="Z1GZJJLQpgZPQw_ahjLU-1">
                    <mxGeometry x="310" y="130" width="120" height="40" as="geometry"/>
                </mxCell>
                <mxCell id="8txTYELBoxjARw4TTfnx-2" value="if cash != full" style="rhombus;whiteSpace=wrap;html=1;" vertex="1" parent="Z1GZJJLQpgZPQw_ahjLU-1">
                    <mxGeometry x="102.5" y="120" width="155" height="60" as="geometry"/>
                </mxCell>
            </root>
        </mxGraphModel>
    </diagram>
</mxfile>